<?xml version="1.0" encoding="utf-8"?>
<!-- Generator: Adobe Illustrator 25.4.1, SVG Export Plug-In . SVG Version: 6.00 Build 0)  -->
<svg version="1.1" id="Ebene_1" xmlns="http://www.w3.org/2000/svg" xmlns:xlink="http://www.w3.org/1999/xlink" x="0px" y="0px"
	 viewBox="0 0 512 512" style="enable-background:new 0 0 512 512;" xml:space="preserve">
<style type="text/css">
	.st0{fill:#FFFFFF;}
	.st1{fill-rule:evenodd;clip-rule:evenodd;fill:#343A40;}
	.st2{fill:#343A40;}
</style>
<g>
	<circle class="st0" cx="256" cy="256" r="256"/>
</g>
<g id="Ebene_x0020_1">
	<g id="_1630067100608">
		<path class="st1" d="M241.6,164c-40.4,70.1-81.1,140.1-121.7,210.1c-11.5,19.8-14,42.4-8.9,63C58,394.6,24,329.3,24,256
			c0-77.6,38.1-146.3,96.6-188.4c13.6-6.8,28.7-8,42.5-4.3c14.9,4,28.2,13.6,36.5,28C199.6,91.3,241.6,164,241.6,164z"/>
		<path class="st1" d="M460.9,364.9C421.9,438.1,344.8,488,256,488c-19.3,0-38.1-2.4-56-6.8c-10.7-2.7-30.9-8.5-39.9-14.5
			c-12.6-8.4-21.2-20.8-24.8-34.6c-4-14.9-2.2-31.2,6.1-45.6l40-69.1c9.6,32.1,39.2,55.5,74.3,55.6l169.1,0
			C437.7,373,449.9,370.1,460.9,364.9L460.9,364.9z"/>
		<path class="st2" d="M256,24c128.1,0,232,103.9,232,232c0,25.6-1.6,55.5-20.7,74.7c-10.9,10.9-24.5,17.4-42.5,17.6l-111.9,0
			c23.1-24.7,27.6-61.9,11-91.3c-34.4-59.7-68.6-118.6-102.9-178c-11.4-19.7-29.4-33.1-49.7-39C197.6,29.6,226.1,24,256,24L256,24z"
			/>
	</g>
</g>
</svg>
